<svg width="400" xmlns="http://www.w3.org/2000/svg" version="1.1" height="400"><defs>
<style type="text/css"><![CDATA[
polygon {
 fill: #FFF; 
 stroke: #008C93;
 stroke-width: 3px;
}]]></style>
<radialGradient id="grays" cx="100%" cy="100%" r="80%"><stop offset="0%" style="stop-color: #999;"/><stop offset="100%" style="stop-color: #000;"/></radialGradient></defs><g style="mask: url(#gradMask)"><polygon points="407.0, 386.73 415.0, 400.0 407.0, 413.27 393.0, 413.27 385.0, 400.0 393.0, 386.73"/><polygon points="347.73, 386.73 355.73, 400.0 347.73, 413.27 333.73, 413.27 325.73, 400.0 333.73, 386.73"/><polygon points="288.47, 386.73 296.47, 400.0 288.47, 413.27 274.47, 413.27 266.47, 400.0 274.47, 386.73"/><polygon points="229.2, 386.73 237.2, 400.0 229.2, 413.27 215.2, 413.27 207.2, 400.0 215.2, 386.73"/><polygon points="169.93, 386.73 177.93, 400.0 169.93, 413.27 155.93, 413.27 147.93, 400.0 155.93, 386.73"/><polygon points="110.67, 386.73 118.67, 400.0 110.67, 413.27 96.67, 413.27 88.67, 400.0 96.67, 386.73"/><polygon points="51.4, 386.73 59.4, 400.0 51.4, 413.27 37.4, 413.27 29.4, 400.0 37.4, 386.73"/><polygon points="-7.87, 386.73 0.13, 400.0 -7.87, 413.27 -21.87, 413.27 -29.87, 400.0 -21.87, 386.73"/><polygon points="377.37, 369.47 385.37, 382.73 377.37, 396.0 363.37, 396.0 355.37, 382.73 363.37, 369.47"/><polygon points="318.1, 369.47 326.1, 382.73 318.1, 396.0 304.1, 396.0 296.1, 382.73 304.1, 369.47"/><polygon points="258.83, 369.47 266.83, 382.73 258.83, 396.0 244.83, 396.0 236.83, 382.73 244.83, 369.47"/><polygon points="199.57, 369.47 207.57, 382.73 199.57, 396.0 185.57, 396.0 177.57, 382.73 185.57, 369.47"/><polygon points="140.3, 369.47 148.3, 382.73 140.3, 396.0 126.3, 396.0 118.3, 382.73 126.3, 369.47"/><polygon points="81.03, 369.47 89.03, 382.73 81.03, 396.0 67.03, 396.0 59.03, 382.73 67.03, 369.47"/><polygon points="21.77, 369.47 29.77, 382.73 21.77, 396.0 7.77, 396.0 -0.23, 382.73 7.77, 369.47"/><polygon points="-37.5, 369.47 -29.5, 382.73 -37.5, 396.0 -51.5, 396.0 -59.5, 382.73 -51.5, 369.47"/><polygon points="407.0, 352.2 415.0, 365.47 407.0, 378.73 393.0, 378.73 385.0, 365.47 393.0, 352.2"/><polygon points="347.73, 352.2 355.73, 365.47 347.73, 378.73 333.73, 378.73 325.73, 365.47 333.73, 352.2"/><polygon points="288.47, 352.2 296.47, 365.47 288.47, 378.73 274.47, 378.73 266.47, 365.47 274.47, 352.2"/><polygon points="229.2, 352.2 237.2, 365.47 229.2, 378.73 215.2, 378.73 207.2, 365.47 215.2, 352.2"/><polygon points="169.93, 352.2 177.93, 365.47 169.93, 378.73 155.93, 378.73 147.93, 365.47 155.93, 352.2"/><polygon points="110.67, 352.2 118.67, 365.47 110.67, 378.73 96.67, 378.73 88.67, 365.47 96.67, 352.2"/><polygon points="51.4, 352.2 59.4, 365.47 51.4, 378.73 37.4, 378.73 29.4, 365.47 37.4, 352.2"/><polygon points="-7.87, 352.2 0.13, 365.47 -7.87, 378.73 -21.87, 378.73 -29.87, 365.47 -21.87, 352.2"/><polygon points="377.37, 334.93 385.37, 348.2 377.37, 361.47 363.37, 361.47 355.37, 348.2 363.37, 334.93"/><polygon points="318.1, 334.93 326.1, 348.2 318.1, 361.47 304.1, 361.47 296.1, 348.2 304.1, 334.93"/><polygon points="258.83, 334.93 266.83, 348.2 258.83, 361.47 244.83, 361.47 236.83, 348.2 244.83, 334.93"/><polygon points="199.57, 334.93 207.57, 348.2 199.57, 361.47 185.57, 361.47 177.57, 348.2 185.57, 334.93"/><polygon points="140.3, 334.93 148.3, 348.2 140.3, 361.47 126.3, 361.47 118.3, 348.2 126.3, 334.93"/><polygon points="81.03, 334.93 89.03, 348.2 81.03, 361.47 67.03, 361.47 59.03, 348.2 67.03, 334.93"/><polygon points="21.77, 334.93 29.77, 348.2 21.77, 361.47 7.77, 361.47 -0.23, 348.2 7.77, 334.93"/><polygon points="-37.5, 334.93 -29.5, 348.2 -37.5, 361.47 -51.5, 361.47 -59.5, 348.2 -51.5, 334.93"/><polygon points="407.0, 317.67 415.0, 330.93 407.0, 344.2 393.0, 344.2 385.0, 330.93 393.0, 317.67"/><polygon points="347.73, 317.67 355.73, 330.93 347.73, 344.2 333.73, 344.2 325.73, 330.93 333.73, 317.67"/><polygon points="288.47, 317.67 296.47, 330.93 288.47, 344.2 274.47, 344.2 266.47, 330.93 274.47, 317.67"/><polygon points="229.2, 317.67 237.2, 330.93 229.2, 344.2 215.2, 344.2 207.2, 330.93 215.2, 317.67"/><polygon points="169.93, 317.67 177.93, 330.93 169.93, 344.2 155.93, 344.2 147.93, 330.93 155.93, 317.67"/><polygon points="110.67, 317.67 118.67, 330.93 110.67, 344.2 96.67, 344.2 88.67, 330.93 96.67, 317.67"/><polygon points="51.4, 317.67 59.4, 330.93 51.4, 344.2 37.4, 344.2 29.4, 330.93 37.4, 317.67"/><polygon points="-7.87, 317.67 0.13, 330.93 -7.87, 344.2 -21.87, 344.2 -29.87, 330.93 -21.87, 317.67"/><polygon points="377.37, 300.4 385.37, 313.67 377.37, 326.93 363.37, 326.93 355.37, 313.67 363.37, 300.4"/><polygon points="318.1, 300.4 326.1, 313.67 318.1, 326.93 304.1, 326.93 296.1, 313.67 304.1, 300.4"/><polygon points="258.83, 300.4 266.83, 313.67 258.83, 326.93 244.83, 326.93 236.83, 313.67 244.83, 300.4"/><polygon points="199.57, 300.4 207.57, 313.67 199.57, 326.93 185.57, 326.93 177.57, 313.67 185.57, 300.4"/><polygon points="140.3, 300.4 148.3, 313.67 140.3, 326.93 126.3, 326.93 118.3, 313.67 126.3, 300.4"/><polygon points="81.03, 300.4 89.03, 313.67 81.03, 326.93 67.03, 326.93 59.03, 313.67 67.03, 300.4"/><polygon points="21.77, 300.4 29.77, 313.67 21.77, 326.93 7.77, 326.93 -0.23, 313.67 7.77, 300.4"/><polygon points="-37.5, 300.4 -29.5, 313.67 -37.5, 326.93 -51.5, 326.93 -59.5, 313.67 -51.5, 300.4"/><polygon points="407.0, 283.13 415.0, 296.4 407.0, 309.67 393.0, 309.67 385.0, 296.4 393.0, 283.13"/><polygon points="347.73, 283.13 355.73, 296.4 347.73, 309.67 333.73, 309.67 325.73, 296.4 333.73, 283.13"/><polygon points="288.47, 283.13 296.47, 296.4 288.47, 309.67 274.47, 309.67 266.47, 296.4 274.47, 283.13"/><polygon points="229.2, 283.13 237.2, 296.4 229.2, 309.67 215.2, 309.67 207.2, 296.4 215.2, 283.13"/><polygon points="169.93, 283.13 177.93, 296.4 169.93, 309.67 155.93, 309.67 147.93, 296.4 155.93, 283.13"/><polygon points="110.67, 283.13 118.67, 296.4 110.67, 309.67 96.67, 309.67 88.67, 296.4 96.67, 283.13"/><polygon points="51.4, 283.13 59.4, 296.4 51.4, 309.67 37.4, 309.67 29.4, 296.4 37.4, 283.13"/><polygon points="-7.87, 283.13 0.13, 296.4 -7.87, 309.67 -21.87, 309.67 -29.87, 296.4 -21.87, 283.13"/><polygon points="377.37, 265.87 385.37, 279.13 377.37, 292.4 363.37, 292.4 355.37, 279.13 363.37, 265.87"/><polygon points="318.1, 265.87 326.1, 279.13 318.1, 292.4 304.1, 292.4 296.1, 279.13 304.1, 265.87"/><polygon points="258.83, 265.87 266.83, 279.13 258.83, 292.4 244.83, 292.4 236.83, 279.13 244.83, 265.87"/><polygon points="199.57, 265.87 207.57, 279.13 199.57, 292.4 185.57, 292.4 177.57, 279.13 185.57, 265.87"/><polygon points="140.3, 265.87 148.3, 279.13 140.3, 292.4 126.3, 292.4 118.3, 279.13 126.3, 265.87"/><polygon points="81.03, 265.87 89.03, 279.13 81.03, 292.4 67.03, 292.4 59.03, 279.13 67.03, 265.87"/><polygon points="21.77, 265.87 29.77, 279.13 21.77, 292.4 7.77, 292.4 -0.23, 279.13 7.77, 265.87"/><polygon points="-37.5, 265.87 -29.5, 279.13 -37.5, 292.4 -51.5, 292.4 -59.5, 279.13 -51.5, 265.87"/><polygon points="407.0, 248.6 415.0, 261.87 407.0, 275.13 393.0, 275.13 385.0, 261.87 393.0, 248.6"/><polygon points="347.73, 248.6 355.73, 261.87 347.73, 275.13 333.73, 275.13 325.73, 261.87 333.73, 248.6"/><polygon points="288.47, 248.6 296.47, 261.87 288.47, 275.13 274.47, 275.13 266.47, 261.87 274.47, 248.6"/><polygon points="229.2, 248.6 237.2, 261.87 229.2, 275.13 215.2, 275.13 207.2, 261.87 215.2, 248.6"/><polygon points="169.93, 248.6 177.93, 261.87 169.93, 275.13 155.93, 275.13 147.93, 261.87 155.93, 248.6"/><polygon points="110.67, 248.6 118.67, 261.87 110.67, 275.13 96.67, 275.13 88.67, 261.87 96.67, 248.6"/><polygon points="51.4, 248.6 59.4, 261.87 51.4, 275.13 37.4, 275.13 29.4, 261.87 37.4, 248.6"/><polygon points="-7.87, 248.6 0.13, 261.87 -7.87, 275.13 -21.87, 275.13 -29.87, 261.87 -21.87, 248.6"/><polygon points="377.37, 231.34 385.37, 244.6 377.37, 257.87 363.37, 257.87 355.37, 244.6 363.37, 231.34"/><polygon points="318.1, 231.34 326.1, 244.6 318.1, 257.87 304.1, 257.87 296.1, 244.6 304.1, 231.34"/><polygon points="258.83, 231.34 266.83, 244.6 258.83, 257.87 244.83, 257.87 236.83, 244.6 244.83, 231.34"/><polygon points="199.57, 231.34 207.57, 244.6 199.57, 257.87 185.57, 257.87 177.57, 244.6 185.57, 231.34"/><polygon points="140.3, 231.34 148.3, 244.6 140.3, 257.87 126.3, 257.87 118.3, 244.6 126.3, 231.34"/><polygon points="81.03, 231.34 89.03, 244.6 81.03, 257.87 67.03, 257.87 59.03, 244.6 67.03, 231.34"/><polygon points="21.77, 231.34 29.77, 244.6 21.77, 257.87 7.77, 257.87 -0.23, 244.6 7.77, 231.34"/><polygon points="-37.5, 231.34 -29.5, 244.6 -37.5, 257.87 -51.5, 257.87 -59.5, 244.6 -51.5, 231.34"/><polygon points="407.0, 214.07 415.0, 227.34 407.0, 240.6 393.0, 240.6 385.0, 227.34 393.0, 214.07"/><polygon points="347.73, 214.07 355.73, 227.34 347.73, 240.6 333.73, 240.6 325.73, 227.34 333.73, 214.07"/><polygon points="288.47, 214.07 296.47, 227.34 288.47, 240.6 274.47, 240.6 266.47, 227.34 274.47, 214.07"/><polygon points="229.2, 214.07 237.2, 227.34 229.2, 240.6 215.2, 240.6 207.2, 227.34 215.2, 214.07"/><polygon points="169.93, 214.07 177.93, 227.34 169.93, 240.6 155.93, 240.6 147.93, 227.34 155.93, 214.07"/><polygon points="110.67, 214.07 118.67, 227.34 110.67, 240.6 96.67, 240.6 88.67, 227.34 96.67, 214.07"/><polygon points="51.4, 214.07 59.4, 227.34 51.4, 240.6 37.4, 240.6 29.4, 227.34 37.4, 214.07"/><polygon points="-7.87, 214.07 0.13, 227.34 -7.87, 240.6 -21.87, 240.6 -29.87, 227.34 -21.87, 214.07"/><polygon points="377.37, 196.8 385.37, 210.07 377.37, 223.34 363.37, 223.34 355.37, 210.07 363.37, 196.8"/><polygon points="318.1, 196.8 326.1, 210.07 318.1, 223.34 304.1, 223.34 296.1, 210.07 304.1, 196.8"/><polygon points="258.83, 196.8 266.83, 210.07 258.83, 223.34 244.83, 223.34 236.83, 210.07 244.83, 196.8"/><polygon points="199.57, 196.8 207.57, 210.07 199.57, 223.34 185.57, 223.34 177.57, 210.07 185.57, 196.8"/><polygon points="140.3, 196.8 148.3, 210.07 140.3, 223.34 126.3, 223.34 118.3, 210.07 126.3, 196.8"/><polygon points="81.03, 196.8 89.03, 210.07 81.03, 223.34 67.03, 223.34 59.03, 210.07 67.03, 196.8"/><polygon points="21.77, 196.8 29.77, 210.07 21.77, 223.34 7.77, 223.34 -0.23, 210.07 7.77, 196.8"/><polygon points="-37.5, 196.8 -29.5, 210.07 -37.5, 223.34 -51.5, 223.34 -59.5, 210.07 -51.5, 196.8"/><polygon points="407.0, 179.54 415.0, 192.8 407.0, 206.07 393.0, 206.07 385.0, 192.8 393.0, 179.54"/><polygon points="347.73, 179.54 355.73, 192.8 347.73, 206.07 333.73, 206.07 325.73, 192.8 333.73, 179.54"/><polygon points="288.47, 179.54 296.47, 192.8 288.47, 206.07 274.47, 206.07 266.47, 192.8 274.47, 179.54"/><polygon points="229.2, 179.54 237.2, 192.8 229.2, 206.07 215.2, 206.07 207.2, 192.8 215.2, 179.54"/><polygon points="169.93, 179.54 177.93, 192.8 169.93, 206.07 155.93, 206.07 147.93, 192.8 155.93, 179.54"/><polygon points="110.67, 179.54 118.67, 192.8 110.67, 206.07 96.67, 206.07 88.67, 192.8 96.67, 179.54"/><polygon points="51.4, 179.54 59.4, 192.8 51.4, 206.07 37.4, 206.07 29.4, 192.8 37.4, 179.54"/><polygon points="-7.87, 179.54 0.13, 192.8 -7.87, 206.07 -21.87, 206.07 -29.87, 192.8 -21.87, 179.54"/><polygon points="377.37, 162.27 385.37, 175.54 377.37, 188.8 363.37, 188.8 355.37, 175.54 363.37, 162.27"/><polygon points="318.1, 162.27 326.1, 175.54 318.1, 188.8 304.1, 188.8 296.1, 175.54 304.1, 162.27"/><polygon points="258.83, 162.27 266.83, 175.54 258.83, 188.8 244.83, 188.8 236.83, 175.54 244.83, 162.27"/><polygon points="199.57, 162.27 207.57, 175.54 199.57, 188.8 185.57, 188.8 177.57, 175.54 185.57, 162.27"/><polygon points="140.3, 162.27 148.3, 175.54 140.3, 188.8 126.3, 188.8 118.3, 175.54 126.3, 162.27"/><polygon points="81.03, 162.27 89.03, 175.54 81.03, 188.8 67.03, 188.8 59.03, 175.54 67.03, 162.27"/><polygon points="21.77, 162.27 29.77, 175.54 21.77, 188.8 7.77, 188.8 -0.23, 175.54 7.77, 162.27"/><polygon points="-37.5, 162.27 -29.5, 175.54 -37.5, 188.8 -51.5, 188.8 -59.5, 175.54 -51.5, 162.27"/><polygon points="407.0, 145.0 415.0, 158.27 407.0, 171.54 393.0, 171.54 385.0, 158.27 393.0, 145.0"/><polygon points="347.73, 145.0 355.73, 158.27 347.73, 171.54 333.73, 171.54 325.73, 158.27 333.73, 145.0"/><polygon points="288.47, 145.0 296.47, 158.27 288.47, 171.54 274.47, 171.54 266.47, 158.27 274.47, 145.0"/><polygon points="229.2, 145.0 237.2, 158.27 229.2, 171.54 215.2, 171.54 207.2, 158.27 215.2, 145.0"/><polygon points="169.93, 145.0 177.93, 158.27 169.93, 171.54 155.93, 171.54 147.93, 158.27 155.93, 145.0"/><polygon points="110.67, 145.0 118.67, 158.27 110.67, 171.54 96.67, 171.54 88.67, 158.27 96.67, 145.0"/><polygon points="51.4, 145.0 59.4, 158.27 51.4, 171.54 37.4, 171.54 29.4, 158.27 37.4, 145.0"/><polygon points="-7.87, 145.0 0.13, 158.27 -7.87, 171.54 -21.87, 171.54 -29.87, 158.27 -21.87, 145.0"/><polygon points="377.37, 127.74 385.37, 141.0 377.37, 154.27 363.37, 154.27 355.37, 141.0 363.37, 127.74"/><polygon points="318.1, 127.74 326.1, 141.0 318.1, 154.27 304.1, 154.27 296.1, 141.0 304.1, 127.74"/><polygon points="258.83, 127.74 266.83, 141.0 258.83, 154.27 244.83, 154.27 236.83, 141.0 244.83, 127.74"/><polygon points="199.57, 127.74 207.57, 141.0 199.57, 154.27 185.57, 154.27 177.57, 141.0 185.57, 127.74"/><polygon points="140.3, 127.74 148.3, 141.0 140.3, 154.27 126.3, 154.27 118.3, 141.0 126.3, 127.74"/><polygon points="81.03, 127.74 89.03, 141.0 81.03, 154.27 67.03, 154.27 59.03, 141.0 67.03, 127.74"/><polygon points="21.77, 127.74 29.77, 141.0 21.77, 154.27 7.77, 154.27 -0.23, 141.0 7.77, 127.74"/><polygon points="-37.5, 127.74 -29.5, 141.0 -37.5, 154.27 -51.5, 154.27 -59.5, 141.0 -51.5, 127.74"/><polygon points="407.0, 110.47 415.0, 123.74 407.0, 137.0 393.0, 137.0 385.0, 123.74 393.0, 110.47"/><polygon points="347.73, 110.47 355.73, 123.74 347.73, 137.0 333.73, 137.0 325.73, 123.74 333.73, 110.47"/><polygon points="288.47, 110.47 296.47, 123.74 288.47, 137.0 274.47, 137.0 266.47, 123.74 274.47, 110.47"/><polygon points="229.2, 110.47 237.2, 123.74 229.2, 137.0 215.2, 137.0 207.2, 123.74 215.2, 110.47"/><polygon points="169.93, 110.47 177.93, 123.74 169.93, 137.0 155.93, 137.0 147.93, 123.74 155.93, 110.47"/><polygon points="110.67, 110.47 118.67, 123.74 110.67, 137.0 96.67, 137.0 88.67, 123.74 96.67, 110.47"/><polygon points="51.4, 110.47 59.4, 123.74 51.4, 137.0 37.4, 137.0 29.4, 123.74 37.4, 110.47"/><polygon points="-7.87, 110.47 0.13, 123.74 -7.87, 137.0 -21.87, 137.0 -29.87, 123.74 -21.87, 110.47"/><polygon points="377.37, 93.2 385.37, 106.47 377.37, 119.74 363.37, 119.74 355.37, 106.47 363.37, 93.2"/><polygon points="318.1, 93.2 326.1, 106.47 318.1, 119.74 304.1, 119.74 296.1, 106.47 304.1, 93.2"/><polygon points="258.83, 93.2 266.83, 106.47 258.83, 119.74 244.83, 119.74 236.83, 106.47 244.83, 93.2"/><polygon points="199.57, 93.2 207.57, 106.47 199.57, 119.74 185.57, 119.74 177.57, 106.47 185.57, 93.2"/><polygon points="140.3, 93.2 148.3, 106.47 140.3, 119.74 126.3, 119.74 118.3, 106.47 126.3, 93.2"/><polygon points="81.03, 93.2 89.03, 106.47 81.03, 119.74 67.03, 119.74 59.03, 106.47 67.03, 93.2"/><polygon points="21.77, 93.2 29.77, 106.47 21.77, 119.74 7.77, 119.74 -0.23, 106.47 7.77, 93.2"/><polygon points="-37.5, 93.2 -29.5, 106.47 -37.5, 119.74 -51.5, 119.74 -59.5, 106.47 -51.5, 93.2"/><polygon points="407.0, 75.94 415.0, 89.2 407.0, 102.47 393.0, 102.47 385.0, 89.2 393.0, 75.94"/><polygon points="347.73, 75.94 355.73, 89.2 347.73, 102.47 333.73, 102.47 325.73, 89.2 333.73, 75.94"/><polygon points="288.47, 75.94 296.47, 89.2 288.47, 102.47 274.47, 102.47 266.47, 89.2 274.47, 75.94"/><polygon points="229.2, 75.94 237.2, 89.2 229.2, 102.47 215.2, 102.47 207.2, 89.2 215.2, 75.94"/><polygon points="169.93, 75.94 177.93, 89.2 169.93, 102.47 155.93, 102.47 147.93, 89.2 155.93, 75.94"/><polygon points="110.67, 75.94 118.67, 89.2 110.67, 102.47 96.67, 102.47 88.67, 89.2 96.67, 75.94"/><polygon points="51.4, 75.94 59.4, 89.2 51.4, 102.47 37.4, 102.47 29.4, 89.2 37.4, 75.94"/><polygon points="-7.87, 75.94 0.13, 89.2 -7.87, 102.47 -21.87, 102.47 -29.87, 89.2 -21.87, 75.94"/><polygon points="377.37, 58.67 385.37, 71.94 377.37, 85.2 363.37, 85.2 355.37, 71.94 363.37, 58.67"/><polygon points="318.1, 58.67 326.1, 71.94 318.1, 85.2 304.1, 85.2 296.1, 71.94 304.1, 58.67"/><polygon points="258.83, 58.67 266.83, 71.94 258.83, 85.2 244.83, 85.2 236.83, 71.94 244.83, 58.67"/><polygon points="199.57, 58.67 207.57, 71.94 199.57, 85.2 185.57, 85.2 177.57, 71.94 185.57, 58.67"/><polygon points="140.3, 58.67 148.3, 71.94 140.3, 85.2 126.3, 85.2 118.3, 71.94 126.3, 58.67"/><polygon points="81.03, 58.67 89.03, 71.94 81.03, 85.2 67.03, 85.2 59.03, 71.94 67.03, 58.67"/><polygon points="21.77, 58.67 29.77, 71.94 21.77, 85.2 7.77, 85.2 -0.23, 71.94 7.77, 58.67"/><polygon points="-37.5, 58.67 -29.5, 71.94 -37.5, 85.2 -51.5, 85.2 -59.5, 71.94 -51.5, 58.67"/><polygon points="407.0, 41.4 415.0, 54.67 407.0, 67.94 393.0, 67.94 385.0, 54.67 393.0, 41.4"/><polygon points="347.73, 41.4 355.73, 54.67 347.73, 67.94 333.73, 67.94 325.73, 54.67 333.73, 41.4"/><polygon points="288.47, 41.4 296.47, 54.67 288.47, 67.94 274.47, 67.94 266.47, 54.67 274.47, 41.4"/><polygon points="229.2, 41.4 237.2, 54.67 229.2, 67.94 215.2, 67.94 207.2, 54.67 215.2, 41.4"/><polygon points="169.93, 41.4 177.93, 54.67 169.93, 67.94 155.93, 67.94 147.93, 54.67 155.93, 41.4"/><polygon points="110.67, 41.4 118.67, 54.67 110.67, 67.94 96.67, 67.94 88.67, 54.67 96.67, 41.4"/><polygon points="51.4, 41.4 59.4, 54.67 51.4, 67.94 37.4, 67.94 29.4, 54.67 37.4, 41.4"/><polygon points="-7.87, 41.4 0.13, 54.67 -7.87, 67.94 -21.87, 67.94 -29.87, 54.67 -21.87, 41.4"/><polygon points="377.37, 24.14 385.37, 37.4 377.37, 50.67 363.37, 50.67 355.37, 37.4 363.37, 24.14"/><polygon points="318.1, 24.14 326.1, 37.4 318.1, 50.67 304.1, 50.67 296.1, 37.4 304.1, 24.14"/><polygon points="258.83, 24.14 266.83, 37.4 258.83, 50.67 244.83, 50.67 236.83, 37.4 244.83, 24.14"/><polygon points="199.57, 24.14 207.57, 37.4 199.57, 50.67 185.57, 50.67 177.57, 37.4 185.57, 24.14"/><polygon points="140.3, 24.14 148.3, 37.4 140.3, 50.67 126.3, 50.67 118.3, 37.4 126.3, 24.14"/><polygon points="81.03, 24.14 89.03, 37.4 81.03, 50.67 67.03, 50.67 59.03, 37.4 67.03, 24.14"/><polygon points="21.77, 24.14 29.77, 37.4 21.77, 50.67 7.77, 50.67 -0.23, 37.4 7.77, 24.14"/><polygon points="-37.5, 24.14 -29.5, 37.4 -37.5, 50.67 -51.5, 50.67 -59.5, 37.4 -51.5, 24.14"/><polygon points="407.0, 6.87 415.0, 20.14 407.0, 33.4 393.0, 33.4 385.0, 20.14 393.0, 6.87"/><polygon points="347.73, 6.87 355.73, 20.14 347.73, 33.4 333.73, 33.4 325.73, 20.14 333.73, 6.87"/><polygon points="288.47, 6.87 296.47, 20.14 288.47, 33.4 274.47, 33.4 266.47, 20.14 274.47, 6.87"/><polygon points="229.2, 6.87 237.2, 20.14 229.2, 33.4 215.2, 33.4 207.2, 20.14 215.2, 6.87"/><polygon points="169.93, 6.87 177.93, 20.14 169.93, 33.4 155.93, 33.4 147.93, 20.14 155.93, 6.87"/><polygon points="110.67, 6.87 118.67, 20.14 110.67, 33.4 96.67, 33.4 88.67, 20.14 96.67, 6.87"/><polygon points="51.4, 6.87 59.4, 20.14 51.4, 33.4 37.4, 33.4 29.4, 20.14 37.4, 6.87"/><polygon points="-7.87, 6.87 0.13, 20.14 -7.87, 33.4 -21.87, 33.4 -29.87, 20.14 -21.87, 6.87"/><polygon points="377.37, -10.4 385.37, 2.87 377.37, 16.14 363.37, 16.14 355.37, 2.87 363.37, -10.4"/><polygon points="318.1, -10.4 326.1, 2.87 318.1, 16.14 304.1, 16.14 296.1, 2.87 304.1, -10.4"/><polygon points="258.83, -10.4 266.83, 2.87 258.83, 16.14 244.83, 16.14 236.83, 2.87 244.83, -10.4"/><polygon points="199.57, -10.4 207.57, 2.87 199.57, 16.14 185.57, 16.14 177.57, 2.87 185.57, -10.4"/><polygon points="140.3, -10.4 148.3, 2.87 140.3, 16.14 126.3, 16.14 118.3, 2.87 126.3, -10.4"/><polygon points="81.03, -10.4 89.03, 2.87 81.03, 16.14 67.03, 16.14 59.03, 2.87 67.03, -10.4"/><polygon points="21.77, -10.4 29.77, 2.87 21.77, 16.14 7.77, 16.14 -0.23, 2.87 7.77, -10.4"/><polygon points="-37.5, -10.4 -29.5, 2.87 -37.5, 16.14 -51.5, 16.14 -59.5, 2.87 -51.5, -10.4"/><polygon points="407.0, -27.66 415.0, -14.4 407.0, -1.13 393.0, -1.13 385.0, -14.4 393.0, -27.66"/><polygon points="347.73, -27.66 355.73, -14.4 347.73, -1.13 333.73, -1.13 325.73, -14.4 333.73, -27.66"/><polygon points="288.47, -27.66 296.47, -14.4 288.47, -1.13 274.47, -1.13 266.47, -14.4 274.47, -27.66"/><polygon points="229.2, -27.66 237.2, -14.4 229.2, -1.13 215.2, -1.13 207.2, -14.4 215.2, -27.66"/><polygon points="169.93, -27.66 177.93, -14.4 169.93, -1.13 155.93, -1.13 147.93, -14.4 155.93, -27.66"/><polygon points="110.67, -27.66 118.67, -14.4 110.67, -1.13 96.67, -1.13 88.67, -14.4 96.67, -27.66"/><polygon points="51.4, -27.66 59.4, -14.4 51.4, -1.13 37.4, -1.13 29.4, -14.4 37.4, -27.66"/><polygon points="-7.87, -27.66 0.13, -14.4 -7.87, -1.13 -21.87, -1.13 -29.87, -14.4 -21.87, -27.66"/><polygon points="377.37, -44.93 385.37, -31.66 377.37, -18.4 363.37, -18.4 355.37, -31.66 363.37, -44.93"/><polygon points="318.1, -44.93 326.1, -31.66 318.1, -18.4 304.1, -18.4 296.1, -31.66 304.1, -44.93"/><polygon points="258.83, -44.93 266.83, -31.66 258.83, -18.4 244.83, -18.4 236.83, -31.66 244.83, -44.93"/><polygon points="199.57, -44.93 207.57, -31.66 199.57, -18.4 185.57, -18.4 177.57, -31.66 185.57, -44.93"/><polygon points="140.3, -44.93 148.3, -31.66 140.3, -18.4 126.3, -18.4 118.3, -31.66 126.3, -44.93"/><polygon points="81.03, -44.93 89.03, -31.66 81.03, -18.4 67.03, -18.4 59.03, -31.66 67.03, -44.93"/><polygon points="21.77, -44.93 29.77, -31.66 21.77, -18.4 7.77, -18.4 -0.23, -31.66 7.77, -44.93"/><polygon points="-37.5, -44.93 -29.5, -31.66 -37.5, -18.4 -51.5, -18.4 -59.5, -31.66 -51.5, -44.93"/><polygon points="407.0, -62.2 415.0, -48.93 407.0, -35.66 393.0, -35.66 385.0, -48.93 393.0, -62.2"/><polygon points="347.73, -62.2 355.73, -48.93 347.73, -35.66 333.73, -35.66 325.73, -48.93 333.73, -62.2"/><polygon points="288.47, -62.2 296.47, -48.93 288.47, -35.66 274.47, -35.66 266.47, -48.93 274.47, -62.2"/><polygon points="229.2, -62.2 237.2, -48.93 229.2, -35.66 215.2, -35.66 207.2, -48.93 215.2, -62.2"/><polygon points="169.93, -62.2 177.93, -48.93 169.93, -35.66 155.93, -35.66 147.93, -48.93 155.93, -62.2"/><polygon points="110.67, -62.2 118.67, -48.93 110.67, -35.66 96.67, -35.66 88.67, -48.93 96.67, -62.2"/><polygon points="51.4, -62.2 59.4, -48.93 51.4, -35.66 37.4, -35.66 29.4, -48.93 37.4, -62.2"/><polygon points="-7.87, -62.2 0.13, -48.93 -7.87, -35.66 -21.87, -35.66 -29.87, -48.93 -21.87, -62.2"/><polygon points="377.37, -79.46 385.37, -66.2 377.37, -52.93 363.37, -52.93 355.37, -66.2 363.37, -79.46"/><polygon points="318.1, -79.46 326.1, -66.2 318.1, -52.93 304.1, -52.93 296.1, -66.2 304.1, -79.46"/><polygon points="258.83, -79.46 266.83, -66.2 258.83, -52.93 244.83, -52.93 236.83, -66.2 244.83, -79.46"/><polygon points="199.57, -79.46 207.57, -66.2 199.57, -52.93 185.57, -52.93 177.57, -66.2 185.57, -79.46"/><polygon points="140.3, -79.46 148.3, -66.2 140.3, -52.93 126.3, -52.93 118.3, -66.2 126.3, -79.46"/><polygon points="81.03, -79.46 89.03, -66.2 81.03, -52.93 67.03, -52.93 59.03, -66.2 67.03, -79.46"/><polygon points="21.77, -79.46 29.77, -66.2 21.77, -52.93 7.77, -52.93 -0.23, -66.2 7.77, -79.46"/><polygon points="-37.5, -79.46 -29.5, -66.2 -37.5, -52.93 -51.5, -52.93 -59.5, -66.2 -51.5, -79.46"/></g><mask id="gradMask"><rect x="0" y="0" width="400" height="400" style="fill: url(#grays);"/></mask></svg>
