/* XPM */
static char * schooltool_xpm[] = {
"34 32 256 2",
"  	c None",
". 	c #020202",
"+ 	c #AAC2C6",
"@ 	c #7696A2",
"# 	c #3A4448",
"$ 	c #466A7A",
"% 	c #DA0202",
"& 	c #4E4E4E",
"* 	c #888688",
"= 	c #E62E04",
"- 	c #FE964E",
"; 	c #605E5E",
"> 	c #8E9090",
", 	c #EE560A",
"' 	c #F7F6F5",
") 	c #2A363A",
"! 	c #EFA99D",
"~ 	c #F24602",
"{ 	c #F26615",
"] 	c #B2CAD6",
"^ 	c #DA160C",
"/ 	c #929294",
"( 	c #B2B5B3",
"_ 	c #12262A",
": 	c #D6EAEE",
"< 	c #DAC6BA",
"[ 	c #F6826E",
"} 	c #FE905C",
"| 	c #EC3A02",
"1 	c #607C88",
"2 	c #EE2802",
"3 	c #7ABEC2",
"4 	c #FEAE76",
"5 	c #FE863A",
"6 	c #02222A",
"7 	c #DEDEDE",
"8 	c #9A9A9E",
"9 	c #326A7A",
"0 	c #FE7E26",
"a 	c #F63C40",
"b 	c #FA663E",
"c 	c #E52202",
"d 	c #DEBAAC",
"e 	c #DE2E1A",
"f 	c #FED69E",
"g 	c #FA4602",
"h 	c #FE7A22",
"i 	c #FE5E1A",
"j 	c #F25202",
"k 	c #021A22",
"l 	c #A2BABE",
"m 	c #F23A10",
"n 	c #526A72",
"o 	c #66828A",
"p 	c #DA0E09",
"q 	c #3E5A5E",
"r 	c #BEC6CE",
"s 	c #EEECEA",
"t 	c #A2A2A2",
"u 	c #EEC2AA",
"v 	c #F32627",
"w 	c #F63232",
"x 	c #738B93",
"y 	c #2A464E",
"z 	c #E6421A",
"A 	c #F45A02",
"B 	c #FE9E5A",
"C 	c #86AAB2",
"D 	c #EE1602",
"E 	c #1E323A",
"F 	c #E53611",
"G 	c #D6CECA",
"H 	c #F6AE96",
"I 	c #EE4A06",
"J 	c #E01E02",
"K 	c #626666",
"L 	c #869AA6",
"M 	c #FE6604",
"N 	c #E23A17",
"O 	c #EE5A14",
"P 	c #535F67",
"Q 	c #FE6636",
"R 	c #E22209",
"S 	c #727E86",
"T 	c #E42806",
"U 	c #FE8668",
"V 	c #A8A9A9",
"W 	c #9AD6DA",
"X 	c #B4BEC6",
"Y 	c #FE9676",
"Z 	c #1E1E1E",
"` 	c #EA3406",
" .	c #F6FEFE",
"..	c #FE8E6E",
"+.	c #EA3A0E",
"@.	c #DB1E13",
"#.	c #484E4E",
"$.	c #F1620D",
"%.	c #F22E2E",
"&.	c #DEE6E2",
"*.	c #FEB29E",
"=.	c #DA1617",
"-.	c #FED4AE",
";.	c #E23E1A",
">.	c #F75602",
",.	c #72828A",
"'.	c #6A6A6A",
").	c #EECAB2",
"!.	c #FEE0C0",
"~.	c #EA460C",
"{.	c #2B2F2F",
"].	c #DA2217",
"^.	c #9AB2B6",
"/.	c #F6521A",
"(.	c #1A1A1A",
"_.	c #FEBB89",
":.	c #8EA6AE",
"<.	c #DE2616",
"[.	c #ADB1B3",
"}.	c #DC1216",
"|.	c #FEEEDA",
"1.	c #36424A",
"2.	c #FD4D19",
"3.	c #EA320E",
"4.	c #EA4E0E",
"5.	c #666A6A",
"6.	c #E64A1A",
"7.	c #909A9E",
"8.	c #EA2212",
"9.	c #0A0A0A",
"0.	c #FEA276",
"a.	c #FEBEAE",
"b.	c #DA1209",
"c.	c #828E96",
"d.	c #EE3E2E",
"e.	c #DE2A19",
"f.	c #1A3240",
"g.	c #F21E22",
"h.	c #DA0A06",
"i.	c #FEC69A",
"j.	c #EAE9E9",
"k.	c #FE6236",
"l.	c #AEC7CE",
"m.	c #DA1A0E",
"n.	c #E74612",
"o.	c #FB5D03",
"p.	c #F33F03",
"q.	c #F26A5A",
"r.	c #82868A",
"s.	c #F16A16",
"t.	c #94AAB2",
"u.	c #DE1E22",
"v.	c #CED2DA",
"w.	c #DE2226",
"x.	c #EADEDA",
"y.	c #EE520A",
"z.	c #E4CEC2",
"A.	c #C6CECE",
"B.	c #5A727E",
"C.	c #F6C6B2",
"D.	c #434344",
"E.	c #E21A02",
"F.	c #DA1212",
"G.	c #545556",
"H.	c #323E46",
"I.	c #FEB68E",
"J.	c #353737",
"K.	c #ADBDC1",
"L.	c #344856",
"M.	c #7C7D7F",
"N.	c #363232",
"O.	c #E6360A",
"P.	c #92A2A6",
"Q.	c #8A8E92",
"R.	c #F13202",
"S.	c #7292A2",
"T.	c #FE6E12",
"U.	c #A6CEDE",
"V.	c #BCBEBE",
"W.	c #E23618",
"X.	c #EF5E14",
"Y.	c #DA0E12",
"Z.	c #E4C8B8",
"`.	c #F6BA9A",
" +	c #FE7A32",
".+	c #FE7E3A",
"++	c #66727A",
"@+	c #E23219",
"#+	c #E64619",
"$+	c #DA1A13",
"%+	c #E21206",
"&+	c #E63A16",
"*+	c #B7B5B5",
"=+	c #FEFEFE",
"-+	c #D2D2D2",
";+	c #F2AE9E",
">+	c #F64246",
",+	c #FA4E02",
"'+	c #567282",
")+	c #F2F2F2",
"!+	c #FEA266",
"~+	c #86A2A6",
"{+	c #DEEEF2",
"]+	c #FEDABE",
"^+	c #727272",
"/+	c #364E56",
"(+	c #FAA286",
"_+	c #EA420E",
":+	c #E20E0A",
"<+	c #DE2214",
"[+	c #E22A12",
"}+	c #E3E2E3",
"|+	c #EE6216",
"1+	c #7A8282",
"2+	c #969E9E",
"3+	c #FE6A12",
"4+	c #EA421A",
"5+	c #F13603",
"6+	c #020A1A",
"7+	c #D5D6D8",
"8+	c #E64E17",
"9+	c #F5CDB6",
"0+	c #EA5216",
"a+	c #E53209",
"b+	c #FE866E",
"c+	c #A29EA0",
"d+	c #C6C8CA",
"e+	c #FEBA9E",
"f+	c #EB5616",
"g+	c #EA4E18",
"h+	c #F4420C",
"i+	c #79858B",
"j+	c #E22E1A",
"k+	c #EA461A",
"l+	c #18222A",
"m+	c #666E76",
"n+	c #4E6E76",
"o+	c #465A6A",
"p+	c #E63E19",
"q+	c #FEC2AE",
"r+	c #8A8A8C",
"s+	c #626262",
"t+	c #F44A02",
"u+	c #FE6220",
"v+	c #F25E06",
"w+	c #8E9EA4",
"x+	c #E22A1A",
"y+	c #DE1616",
"z+	c #D90603",
"A+	c #EA4A19",
"B+	c #F6827A",
"C+	c #FE5E26",
"D+	c #FE9A66",
"E+	c #FA927A",
"F+	c #EE3E1A",
"G+	c #FEF2E6",
"                                                                    ",
"                                                                    ",
"                      =.h.b.@.].].@.m.h.p u.                        ",
"                  h.b.@.<.e j+j+@+@+j+e.<.m.z+g.                    ",
"              v b.].x+@+W.N N &+N ;.p+N @+R 8.B+:+                  ",
"            F.^ <.@+N N &+p+k+z 4+4+z &+a+m A.3 d.z+a               ",
"          Y.$+e.@+N p+4+k+#+A+6.6.n.| 5+g q+x K.D <+b.>+            ",
"        v ^ [+W.;.z #+6.8+A+I ,+p.h+0.j.l.,.# j.2 @+<.h.            ",
"        b.e.W.N p+k+6.8+f+y.0.U.9+]+y ++D.s+. x.5+F W.<+p           ",
"      Y.<+@+N z ~.8+0+O X.O 5 S.6+i+1+1+)+7 5.-+k.` W.j+m.w         ",
"      b.e.W.p+#+g+0+X.|+s.{ o.h !.H.9.t 7 s+D.P.X h+;.W.<.p         ",
"    y+@.@+N p+A+g+O |+s.{ { { j _.t.; =+7+^+[.-+^.i ` N j+^         ",
"    z+].T 2 t+2.~ O |+{ { { { , _.f.{.=+=+*+* }+c.d 2.a+@+<+}.      ",
"    b.J [ &.l.U.} ,+3+h M >.j j - o+(.7 J.=+=+7 r./+q+5+W.e.h.      ",
"    $+^ ! ~+#.P 9+I.L 1 [.9+]+-.f P *+M.# ,.E =+*+{.o k.e e.^       ",
"    <+E.;+l . . =+# m+. X . i+. Z v.7+P Z.M i.L.&.=+n+*.= j+$+      ",
"    <+R ..C ) G.' 7 ; J.=+. =+. =+)+Q.L.- j h '+] =+1 U a+e $+      ",
"    @.[+F+Z.: K.2+=+{.' s+(.s . =+> l+-.o.$.o.I.i+$ H 5+F j+^       ",
"    ^ e a+3.~ C+Z.[.> M.)+D.=+& =+=+X C.>.{ $.v+0 } h++.N e.p       ",
"    z+x+N p+_+| `.f.=+M.=+G.=+7+V [.. Z.A { { { , 6.n.p+W.<+Y.      ",
"    F.].W.;.#+~.M 7.( 7+j.=+=+*+D.{.B.D+v+s.s.{ O 8+~.;.@+^         ",
"      m.j+&+z #+h+Y n 2+N.* c+'.#.w+4 o.{ { { X.0+6.z N j+p         ",
"      h.<.W.p+#+n.p.u S & ( r+V.V 8 T.v+s.{ |+f+g+k+p+@+@.=.        ",
"      a ^ e W.p+z R.I.,.r+G.s t [.S.!+X.|+X.0+8+#+z F e.p           ",
"        F.].j+N T Q :.A.> < 8 d+d+L .+, f+0+6.A+p+N e ^             ",
"          h.<+e.R. .{+G '.|./ *+V G+i ~.8+8+~.p+N e m.%.            ",
"            h.m.q.W q + 6 ] :._ k 9 (+p+n.z &+W.j+^ }.              ",
"              z+b.! ! U E+U d q+a.U 5++.&+W.@+<.b.w                 ",
"                v % z+%+J J J J T = @+@+e <.^ z+                    ",
"                    w h.^ @.<.e.<.<.].@.p F.                        ",
"                            u.m.=.=.].                              ",
"                                                                    "};
