/* XPM */
static char * schooltool_xpm[] = {
"32 32 239 2",
"  	c None",
". 	c #DA1617",
"+ 	c #DA0A06",
"@ 	c #DA1209",
"# 	c #DB1E13",
"$ 	c #DA2217",
"% 	c #DA1A0E",
"& 	c #DA0E09",
"* 	c #DE1E22",
"= 	c #DE2616",
"- 	c #DE2E1A",
"; 	c #E22E1A",
"> 	c #E23219",
", 	c #DE2A19",
"' 	c #D90603",
") 	c #F21E22",
"! 	c #F32627",
"~ 	c #E22A1A",
"{ 	c #E23618",
"] 	c #E23A17",
"^ 	c #E63A16",
"/ 	c #E23E1A",
"( 	c #E63E19",
"_ 	c #E22209",
": 	c #EA2212",
"< 	c #F6827A",
"[ 	c #E20E0A",
"} 	c #DA1212",
"| 	c #DA160C",
"1 	c #EA461A",
"2 	c #E6421A",
"3 	c #EA421A",
"4 	c #E53209",
"5 	c #F23A10",
"6 	c #C6CECE",
"7 	c #7ABEC2",
"8 	c #EE3E2E",
"9 	c #F63C40",
"0 	c #DA0E12",
"a 	c #DA1A13",
"b 	c #E64619",
"c 	c #EA4A19",
"d 	c #E64A1A",
"e 	c #E74612",
"f 	c #EC3A02",
"g 	c #F13603",
"h 	c #FA4602",
"i 	c #FEC2AE",
"j 	c #738B93",
"k 	c #ADBDC1",
"l 	c #EE1602",
"m 	c #DE2214",
"n 	c #F64246",
"o 	c #E22A12",
"p 	c #E64E17",
"q 	c #EE4A06",
"r 	c #FA4E02",
"s 	c #F33F03",
"t 	c #F4420C",
"u 	c #FEA276",
"v 	c #EAE9E9",
"w 	c #AEC7CE",
"x 	c #72828A",
"y 	c #3A4448",
"z 	c #EE2802",
"A 	c #EB5616",
"B 	c #EE520A",
"C 	c #A6CEDE",
"D 	c #F5CDB6",
"E 	c #FEDABE",
"F 	c #2A464E",
"G 	c #66727A",
"H 	c #434344",
"I 	c #626262",
"J 	c #020202",
"K 	c #EADEDA",
"L 	c #E53611",
"M 	c #EA460C",
"N 	c #EA5216",
"O 	c #EE5A14",
"P 	c #EF5E14",
"Q 	c #FE863A",
"R 	c #7292A2",
"S 	c #020A1A",
"T 	c #79858B",
"U 	c #7A8282",
"V 	c #F2F2F2",
"W 	c #DEDEDE",
"X 	c #666A6A",
"Y 	c #D2D2D2",
"Z 	c #FE6236",
"` 	c #EA3406",
" .	c #F63232",
"..	c #EA4E18",
"+.	c #EE6216",
"@.	c #F16A16",
"#.	c #F26615",
"$.	c #FB5D03",
"%.	c #FE7A22",
"&.	c #FEE0C0",
"*.	c #323E46",
"=.	c #0A0A0A",
"-.	c #A2A2A2",
";.	c #92A2A6",
">.	c #B4BEC6",
",.	c #DE1616",
"'.	c #F25202",
").	c #FEBB89",
"!.	c #94AAB2",
"~.	c #605E5E",
"{.	c #FEFEFE",
"].	c #D5D6D8",
"^.	c #727272",
"/.	c #ADB1B3",
"(.	c #9AB2B6",
"_.	c #FE5E1A",
":.	c #E42806",
"<.	c #F44A02",
"[.	c #FD4D19",
"}.	c #F24602",
"|.	c #EE560A",
"1.	c #1A3240",
"2.	c #2B2F2F",
"3.	c #B7B5B5",
"4.	c #888688",
"5.	c #E3E2E3",
"6.	c #828E96",
"7.	c #DEBAAC",
"8.	c #DC1216",
"9.	c #E01E02",
"0.	c #F6826E",
"a.	c #DEE6E2",
"b.	c #FE905C",
"c.	c #FE6A12",
"d.	c #FE6604",
"e.	c #F75602",
"f.	c #FE964E",
"g.	c #465A6A",
"h.	c #1A1A1A",
"i.	c #353737",
"j.	c #82868A",
"k.	c #364E56",
"l.	c #EFA99D",
"m.	c #86A2A6",
"n.	c #484E4E",
"o.	c #535F67",
"p.	c #FEB68E",
"q.	c #869AA6",
"r.	c #607C88",
"s.	c #FED4AE",
"t.	c #FED69E",
"u.	c #7C7D7F",
"v.	c #1E323A",
"w.	c #66828A",
"x.	c #E21A02",
"y.	c #F2AE9E",
"z.	c #A2BABE",
"A.	c #666E76",
"B.	c #1E1E1E",
"C.	c #CED2DA",
"D.	c #E4C8B8",
"E.	c #FEC69A",
"F.	c #344856",
"G.	c #4E6E76",
"H.	c #FEB29E",
"I.	c #E62E04",
"J.	c #FE8E6E",
"K.	c #86AAB2",
"L.	c #2A363A",
"M.	c #545556",
"N.	c #F7F6F5",
"O.	c #8A8E92",
"P.	c #567282",
"Q.	c #B2CAD6",
"R.	c #FE8668",
"S.	c #EE3E1A",
"T.	c #D6EAEE",
"U.	c #969E9E",
"V.	c #EEECEA",
"W.	c #8E9090",
"X.	c #18222A",
"Y.	c #F1620D",
"Z.	c #466A7A",
"`.	c #F6AE96",
" +	c #EA320E",
".+	c #FE5E26",
"++	c #4E4E4E",
"@+	c #F6C6B2",
"#+	c #F25E06",
"$+	c #FE7E26",
"%+	c #EA3A0E",
"&+	c #EA420E",
"*+	c #F6BA9A",
"=+	c #A8A9A9",
"-+	c #F45A02",
";+	c #909A9E",
">+	c #B2B5B3",
",+	c #5A727E",
"'+	c #FE9A66",
")+	c #FE9676",
"!+	c #526A72",
"~+	c #363232",
"{+	c #A29EA0",
"]+	c #6A6A6A",
"^+	c #8E9EA4",
"/+	c #FEAE76",
"(+	c #EEC2AA",
"_+	c #727E86",
":+	c #8A8A8C",
"<+	c #BCBEBE",
"[+	c #9A9A9E",
"}+	c #FE6E12",
"|+	c #F13202",
"1+	c #FEA266",
"2+	c #FE6636",
"3+	c #8EA6AE",
"4+	c #DAC6BA",
"5+	c #C6C8CA",
"6+	c #FE7E3A",
"7+	c #F6FEFE",
"8+	c #DEEEF2",
"9+	c #D6CECA",
"0+	c #FEEEDA",
"a+	c #929294",
"b+	c #FEF2E6",
"c+	c #F22E2E",
"d+	c #F26A5A",
"e+	c #9AD6DA",
"f+	c #3E5A5E",
"g+	c #AAC2C6",
"h+	c #02222A",
"i+	c #12262A",
"j+	c #021A22",
"k+	c #326A7A",
"l+	c #FAA286",
"m+	c #FA927A",
"n+	c #FEBEAE",
"o+	c #DA0202",
"p+	c #E21206",
"                                                                ",
"                                                                ",
"                      . + @ # $ $ # % + & *                     ",
"                  + @ # = - ; ; > > ; , = % ' )                 ",
"              ! @ $ ~ > { ] ] ^ ] / ( ] > _ : < [               ",
"            } | = > ] ] ^ ( 1 2 3 3 2 ^ 4 5 6 7 8 ' 9           ",
"          0 a , > ] ( 3 1 b c d d e f g h i j k l m @ n         ",
"        ! | o { / 2 b d p c q r s t u v w x y v z > = +         ",
"        @ , { ] ( 1 d p A B u C D E F G H I J K g L { m &       ",
"      0 m > ] 2 M p N O P O Q R S T U U V W X Y Z ` { ; %  .    ",
"      @ , { ( b ..N P +.@.#.$.%.&.*.=.-.W I H ;.>.t / { = &     ",
"    ,.# > ] ( c ..O +.@.#.#.#.'.).!.~.{.].^./.Y (._.` ] ; |     ",
"    ' $ :.z <.[.}.O +.#.#.#.#.|.).1.2.{.{.3.4.5.6.7.[.4 > m 8.  ",
"    @ 9.0.a.w C b.r c.%.d.e.'.'.f.g.h.W i.{.{.W j.k.i g { , +   ",
"    a | l.m.n.o.D p.q.r./.D E s.t.o.3.u.y x v.{.3.2.w.Z - , |   ",
"    m x.y.z.J J {.y A.J >.J T J B.C.].o.D.d.E.F.a.{.G.H.I.; a   ",
"    m _ J.K.L.M.N.W ~.i.{.J {.J {.V O.F.f.'.%.P.Q.{.r.R.4 - a   ",
"    # o S.D.T.k U.{.2.N.I h.V.J {.W.X.s.$.Y.$.p.T Z.`.g L ; |   ",
"    | - 4  +}..+D./.W.u.V H {.++{.{.>.@+e.#.Y.#+$+b.t %+] , &   ",
"    ' ~ ] ( &+f *+1.{.u.{.M.{.].=+/.J D.-+#.#.#.|.d e ( { m 0   ",
"    } $ { / b M d.;+>+].v {.{.3.H 2.,+'+#+@.@.#.O p M / > |     ",
"      % ; ^ 2 b t )+!+U.~+4.{+]+n.^+/+$.#.#.#.P N d 2 ] ; &     ",
"      + = { ( b e s (+_+++>+:+<+=+[+}+#+@.#.+.A ..1 ( > # .     ",
"      9 | - { ( 2 |+p.x :+M.V.-./.R 1+P +.P N p b 2 L , &       ",
"        } $ ; ] :.2+3+6 W.4+[+5+5+q.6+|.A N d c ( ] - |         ",
"          + m , |+7+8+9+]+0+a+3.=+b+_.M p p M ( ] - % c+        ",
"            + % d+e+f+g+h+Q.3+i+j+k+l+( e 2 ^ { ; | 8.          ",
"              ' @ l.l.R.m+R.7.i n+R.g %+^ { > = @  .            ",
"                ! o+' p+9.9.9.9.:.I.> > - = | '                 ",
"                     .+ | # = , = = $ # & }                     ",
"                            * % . . $                           ",
"                                                                "};
